<mxfile host="www.draw.io" modified="2019-12-18T07:32:17.862Z" agent="Mozilla/5.0 (Macintosh; Intel Mac OS X 10_14_6) AppleWebKit/537.36 (KHTML, like Gecko) Chrome/79.0.3945.79 Safari/537.36" etag="PM1hl5PKbJuztP6X_YYT" version="12.4.3" type="github" pages="1">
  <diagram id="OukYyGV7zcDMUsTD226A" name="第 1 页">
    <mxGraphModel dx="2852" dy="1606" grid="1" gridSize="10" guides="1" tooltips="1" connect="1" arrows="1" fold="1" page="1" pageScale="1" pageWidth="2339" pageHeight="3300" math="0" shadow="0">
      <root>
        <mxCell id="0"/>
        <mxCell id="1" parent="0"/>
        <mxCell id="z5kMd6_473vXCsXjWjBx-3" value="" style="edgeStyle=orthogonalEdgeStyle;rounded=0;orthogonalLoop=1;jettySize=auto;html=1;" edge="1" parent="1" source="z5kMd6_473vXCsXjWjBx-1" target="z5kMd6_473vXCsXjWjBx-2">
          <mxGeometry relative="1" as="geometry"/>
        </mxCell>
        <mxCell id="z5kMd6_473vXCsXjWjBx-1" value="新增项目场景" style="rounded=1;whiteSpace=wrap;html=1;" vertex="1" parent="1">
          <mxGeometry x="40" y="140" width="120" height="60" as="geometry"/>
        </mxCell>
        <mxCell id="z5kMd6_473vXCsXjWjBx-5" value="" style="edgeStyle=orthogonalEdgeStyle;rounded=0;orthogonalLoop=1;jettySize=auto;html=1;" edge="1" parent="1" source="z5kMd6_473vXCsXjWjBx-2" target="z5kMd6_473vXCsXjWjBx-4">
          <mxGeometry relative="1" as="geometry"/>
        </mxCell>
        <mxCell id="z5kMd6_473vXCsXjWjBx-2" value="模板选择&lt;br&gt;应用/插件/模板" style="rounded=1;whiteSpace=wrap;html=1;fillColor=#d5e8d4;strokeColor=#82b366;" vertex="1" parent="1">
          <mxGeometry x="230" y="140" width="120" height="60" as="geometry"/>
        </mxCell>
        <mxCell id="z5kMd6_473vXCsXjWjBx-7" value="" style="edgeStyle=orthogonalEdgeStyle;rounded=0;orthogonalLoop=1;jettySize=auto;html=1;" edge="1" parent="1" source="z5kMd6_473vXCsXjWjBx-4" target="z5kMd6_473vXCsXjWjBx-6">
          <mxGeometry relative="1" as="geometry"/>
        </mxCell>
        <mxCell id="z5kMd6_473vXCsXjWjBx-4" value="初始化仓库" style="rounded=1;whiteSpace=wrap;html=1;fillColor=#ffe6cc;strokeColor=#d79b00;" vertex="1" parent="1">
          <mxGeometry x="430" y="140" width="120" height="60" as="geometry"/>
        </mxCell>
        <mxCell id="z5kMd6_473vXCsXjWjBx-9" value="" style="edgeStyle=orthogonalEdgeStyle;rounded=0;orthogonalLoop=1;jettySize=auto;html=1;" edge="1" parent="1" source="z5kMd6_473vXCsXjWjBx-6" target="z5kMd6_473vXCsXjWjBx-8">
          <mxGeometry relative="1" as="geometry"/>
        </mxCell>
        <mxCell id="z5kMd6_473vXCsXjWjBx-6" value="本地代码拉取&lt;br&gt;git clone" style="rounded=1;whiteSpace=wrap;html=1;fillColor=#dae8fc;strokeColor=#6c8ebf;" vertex="1" parent="1">
          <mxGeometry x="430" y="280" width="120" height="60" as="geometry"/>
        </mxCell>
        <mxCell id="z5kMd6_473vXCsXjWjBx-11" value="" style="edgeStyle=orthogonalEdgeStyle;rounded=0;orthogonalLoop=1;jettySize=auto;html=1;" edge="1" parent="1" source="z5kMd6_473vXCsXjWjBx-8" target="z5kMd6_473vXCsXjWjBx-10">
          <mxGeometry relative="1" as="geometry"/>
        </mxCell>
        <mxCell id="z5kMd6_473vXCsXjWjBx-8" value="IDE插件初始化" style="rounded=1;whiteSpace=wrap;html=1;fillColor=#d5e8d4;strokeColor=#82b366;" vertex="1" parent="1">
          <mxGeometry x="430" y="420" width="120" height="60" as="geometry"/>
        </mxCell>
        <mxCell id="z5kMd6_473vXCsXjWjBx-13" value="" style="edgeStyle=orthogonalEdgeStyle;rounded=0;orthogonalLoop=1;jettySize=auto;html=1;" edge="1" parent="1" source="z5kMd6_473vXCsXjWjBx-10" target="z5kMd6_473vXCsXjWjBx-12">
          <mxGeometry relative="1" as="geometry"/>
        </mxCell>
        <mxCell id="z5kMd6_473vXCsXjWjBx-10" value="创建迭代" style="rounded=1;whiteSpace=wrap;html=1;fillColor=#dae8fc;strokeColor=#6c8ebf;" vertex="1" parent="1">
          <mxGeometry x="630" y="420" width="120" height="60" as="geometry"/>
        </mxCell>
        <mxCell id="z5kMd6_473vXCsXjWjBx-15" value="" style="edgeStyle=orthogonalEdgeStyle;rounded=0;orthogonalLoop=1;jettySize=auto;html=1;" edge="1" parent="1" source="z5kMd6_473vXCsXjWjBx-12" target="z5kMd6_473vXCsXjWjBx-14">
          <mxGeometry relative="1" as="geometry"/>
        </mxCell>
        <mxCell id="z5kMd6_473vXCsXjWjBx-12" value="DEF 分支拉取" style="rounded=1;whiteSpace=wrap;html=1;fillColor=#dae8fc;strokeColor=#6c8ebf;" vertex="1" parent="1">
          <mxGeometry x="830" y="420" width="120" height="60" as="geometry"/>
        </mxCell>
        <mxCell id="z5kMd6_473vXCsXjWjBx-17" value="" style="edgeStyle=orthogonalEdgeStyle;rounded=0;orthogonalLoop=1;jettySize=auto;html=1;" edge="1" parent="1" source="z5kMd6_473vXCsXjWjBx-14" target="z5kMd6_473vXCsXjWjBx-16">
          <mxGeometry relative="1" as="geometry"/>
        </mxCell>
        <mxCell id="z5kMd6_473vXCsXjWjBx-14" value="本地分支更新" style="rounded=1;whiteSpace=wrap;html=1;fillColor=#dae8fc;strokeColor=#6c8ebf;" vertex="1" parent="1">
          <mxGeometry x="830" y="550" width="120" height="60" as="geometry"/>
        </mxCell>
        <mxCell id="z5kMd6_473vXCsXjWjBx-19" value="" style="edgeStyle=orthogonalEdgeStyle;rounded=0;orthogonalLoop=1;jettySize=auto;html=1;" edge="1" parent="1" source="z5kMd6_473vXCsXjWjBx-16" target="z5kMd6_473vXCsXjWjBx-18">
          <mxGeometry relative="1" as="geometry"/>
        </mxCell>
        <mxCell id="z5kMd6_473vXCsXjWjBx-21" value="" style="edgeStyle=orthogonalEdgeStyle;rounded=0;orthogonalLoop=1;jettySize=auto;html=1;" edge="1" parent="1" source="z5kMd6_473vXCsXjWjBx-16" target="z5kMd6_473vXCsXjWjBx-20">
          <mxGeometry relative="1" as="geometry"/>
        </mxCell>
        <mxCell id="z5kMd6_473vXCsXjWjBx-16" value="Coding" style="rounded=1;whiteSpace=wrap;html=1;fillColor=#d5e8d4;strokeColor=#82b366;" vertex="1" parent="1">
          <mxGeometry x="830" y="700" width="120" height="60" as="geometry"/>
        </mxCell>
        <mxCell id="z5kMd6_473vXCsXjWjBx-31" value="" style="edgeStyle=orthogonalEdgeStyle;rounded=0;orthogonalLoop=1;jettySize=auto;html=1;" edge="1" parent="1" source="z5kMd6_473vXCsXjWjBx-20" target="z5kMd6_473vXCsXjWjBx-30">
          <mxGeometry relative="1" as="geometry"/>
        </mxCell>
        <mxCell id="z5kMd6_473vXCsXjWjBx-20" value="git commt&lt;br&gt;git push" style="rounded=1;whiteSpace=wrap;html=1;fillColor=#dae8fc;strokeColor=#6c8ebf;" vertex="1" parent="1">
          <mxGeometry x="630" y="700" width="120" height="60" as="geometry"/>
        </mxCell>
        <mxCell id="z5kMd6_473vXCsXjWjBx-37" style="edgeStyle=orthogonalEdgeStyle;rounded=0;orthogonalLoop=1;jettySize=auto;html=1;" edge="1" parent="1" source="z5kMd6_473vXCsXjWjBx-30" target="z5kMd6_473vXCsXjWjBx-22">
          <mxGeometry relative="1" as="geometry"/>
        </mxCell>
        <mxCell id="z5kMd6_473vXCsXjWjBx-30" value="DEF 平台发布接口" style="rounded=1;whiteSpace=wrap;html=1;fillColor=#dae8fc;strokeColor=#6c8ebf;" vertex="1" parent="1">
          <mxGeometry x="430" y="700" width="120" height="60" as="geometry"/>
        </mxCell>
        <mxCell id="z5kMd6_473vXCsXjWjBx-34" value="" style="edgeStyle=orthogonalEdgeStyle;rounded=0;orthogonalLoop=1;jettySize=auto;html=1;" edge="1" parent="1" source="z5kMd6_473vXCsXjWjBx-22" target="z5kMd6_473vXCsXjWjBx-33">
          <mxGeometry relative="1" as="geometry"/>
        </mxCell>
        <mxCell id="z5kMd6_473vXCsXjWjBx-22" value="发布" style="rounded=1;whiteSpace=wrap;html=1;fillColor=#dae8fc;strokeColor=#6c8ebf;" vertex="1" parent="1">
          <mxGeometry x="230" y="700" width="120" height="60" as="geometry"/>
        </mxCell>
        <mxCell id="z5kMd6_473vXCsXjWjBx-36" value="" style="edgeStyle=orthogonalEdgeStyle;rounded=0;orthogonalLoop=1;jettySize=auto;html=1;" edge="1" parent="1" source="z5kMd6_473vXCsXjWjBx-33" target="z5kMd6_473vXCsXjWjBx-35">
          <mxGeometry relative="1" as="geometry"/>
        </mxCell>
        <mxCell id="z5kMd6_473vXCsXjWjBx-33" value="小程序平台" style="rounded=1;whiteSpace=wrap;html=1;" vertex="1" parent="1">
          <mxGeometry x="230" y="840" width="120" height="60" as="geometry"/>
        </mxCell>
        <mxCell id="z5kMd6_473vXCsXjWjBx-35" value="版本发布" style="rounded=1;whiteSpace=wrap;html=1;" vertex="1" parent="1">
          <mxGeometry x="230" y="980" width="120" height="60" as="geometry"/>
        </mxCell>
        <mxCell id="z5kMd6_473vXCsXjWjBx-18" value="小程序&lt;br&gt;调试/预览" style="rounded=1;whiteSpace=wrap;html=1;fillColor=#dae8fc;strokeColor=#6c8ebf;" vertex="1" parent="1">
          <mxGeometry x="830" y="840" width="120" height="60" as="geometry"/>
        </mxCell>
        <mxCell id="z5kMd6_473vXCsXjWjBx-25" style="edgeStyle=orthogonalEdgeStyle;rounded=0;orthogonalLoop=1;jettySize=auto;html=1;" edge="1" parent="1" source="z5kMd6_473vXCsXjWjBx-24" target="z5kMd6_473vXCsXjWjBx-8">
          <mxGeometry relative="1" as="geometry"/>
        </mxCell>
        <mxCell id="z5kMd6_473vXCsXjWjBx-24" value="本地代码环境" style="rounded=1;whiteSpace=wrap;html=1;" vertex="1" parent="1">
          <mxGeometry x="40" y="420" width="120" height="60" as="geometry"/>
        </mxCell>
        <mxCell id="z5kMd6_473vXCsXjWjBx-29" style="edgeStyle=orthogonalEdgeStyle;rounded=0;orthogonalLoop=1;jettySize=auto;html=1;" edge="1" parent="1" source="z5kMd6_473vXCsXjWjBx-26" target="z5kMd6_473vXCsXjWjBx-6">
          <mxGeometry relative="1" as="geometry"/>
        </mxCell>
        <mxCell id="z5kMd6_473vXCsXjWjBx-26" value="远程应用" style="rounded=1;whiteSpace=wrap;html=1;" vertex="1" parent="1">
          <mxGeometry x="40" y="280" width="120" height="60" as="geometry"/>
        </mxCell>
        <mxCell id="z5kMd6_473vXCsXjWjBx-47" value="" style="group" vertex="1" connectable="0" parent="1">
          <mxGeometry x="720" y="140" width="150" height="130" as="geometry"/>
        </mxCell>
        <mxCell id="z5kMd6_473vXCsXjWjBx-40" value="" style="group" vertex="1" connectable="0" parent="z5kMd6_473vXCsXjWjBx-47">
          <mxGeometry width="150" height="30" as="geometry"/>
        </mxCell>
        <mxCell id="z5kMd6_473vXCsXjWjBx-38" value="" style="rounded=1;whiteSpace=wrap;html=1;fillColor=#dae8fc;strokeColor=#6c8ebf;" vertex="1" parent="z5kMd6_473vXCsXjWjBx-40">
          <mxGeometry width="60" height="30" as="geometry"/>
        </mxCell>
        <mxCell id="z5kMd6_473vXCsXjWjBx-39" value="小程序插件" style="text;html=1;strokeColor=none;fillColor=none;align=center;verticalAlign=middle;whiteSpace=wrap;rounded=0;" vertex="1" parent="z5kMd6_473vXCsXjWjBx-40">
          <mxGeometry x="70" y="5" width="80" height="20" as="geometry"/>
        </mxCell>
        <mxCell id="z5kMd6_473vXCsXjWjBx-41" value="" style="group" vertex="1" connectable="0" parent="z5kMd6_473vXCsXjWjBx-47">
          <mxGeometry y="50" width="150" height="30" as="geometry"/>
        </mxCell>
        <mxCell id="z5kMd6_473vXCsXjWjBx-42" value="" style="rounded=1;whiteSpace=wrap;html=1;fillColor=#d5e8d4;strokeColor=#82b366;" vertex="1" parent="z5kMd6_473vXCsXjWjBx-41">
          <mxGeometry width="60" height="30" as="geometry"/>
        </mxCell>
        <mxCell id="z5kMd6_473vXCsXjWjBx-43" value="IDE 基础链路" style="text;html=1;strokeColor=none;fillColor=none;align=center;verticalAlign=middle;whiteSpace=wrap;rounded=0;" vertex="1" parent="z5kMd6_473vXCsXjWjBx-41">
          <mxGeometry x="70" y="5" width="80" height="20" as="geometry"/>
        </mxCell>
        <mxCell id="z5kMd6_473vXCsXjWjBx-44" value="" style="group" vertex="1" connectable="0" parent="z5kMd6_473vXCsXjWjBx-47">
          <mxGeometry y="100" width="150" height="30" as="geometry"/>
        </mxCell>
        <mxCell id="z5kMd6_473vXCsXjWjBx-45" value="" style="rounded=1;whiteSpace=wrap;html=1;fillColor=#ffe6cc;strokeColor=#d79b00;" vertex="1" parent="z5kMd6_473vXCsXjWjBx-44">
          <mxGeometry width="60" height="30" as="geometry"/>
        </mxCell>
        <mxCell id="z5kMd6_473vXCsXjWjBx-46" value="DEF 平台功能" style="text;html=1;strokeColor=none;fillColor=none;align=center;verticalAlign=middle;whiteSpace=wrap;rounded=0;" vertex="1" parent="z5kMd6_473vXCsXjWjBx-44">
          <mxGeometry x="70" y="5" width="80" height="20" as="geometry"/>
        </mxCell>
      </root>
    </mxGraphModel>
  </diagram>
</mxfile>
